# Blender v3.0.0 OBJ File: 'plataforma.blend'
# www.blender.org
o Cube.003
v 0.500000 -0.500000 -0.000000
v -0.500000 -0.500000 0.400000
v -0.500000 -0.500000 -0.000000
v 0.500000 0.500000 0.000000
v 0.500000 -0.500000 0.400000
v -0.500000 0.500000 0.400000
v 0.500000 0.500000 0.400000
v -0.500000 0.500000 0.000000
vt 0.500229 0.749885
vt 0.999869 0.250175
vt 0.999869 0.749668
vt 0.999908 0.000105
vt 0.000096 0.249918
vt 0.999908 0.249918
vt 0.999908 0.000105
vt 0.000096 0.249918
vt 0.999908 0.249918
vt 0.000091 0.749885
vt 0.499731 0.250175
vt 0.499731 0.749668
vt 0.999908 0.000105
vt 0.000096 0.249918
vt 0.999908 0.249918
vt 0.999908 0.000105
vt 0.000096 0.249918
vt 0.999908 0.249918
vt 0.500229 0.250393
vt 0.000097 0.000105
vt 0.000097 0.000105
vt 0.000091 0.250393
vt 0.000097 0.000105
vt 0.000097 0.000105
vn 0.0000 -0.0000 1.0000
vn -1.0000 0.0000 0.0000
vn 0.0000 1.0000 0.0000
vn 0.0000 0.0000 -1.0000
vn 0.0000 -1.0000 -0.0000
vn 1.0000 0.0000 0.0000
usemtl Material.001
s 1
f 2/1/1 7/2/1 6/3/1
f 2/4/2 8/5/2 3/6/2
f 6/7/3 4/8/3 8/9/3
f 8/10/4 1/11/4 3/12/4
f 5/13/5 3/14/5 1/15/5
f 7/16/6 1/17/6 4/18/6
f 2/1/1 5/19/1 7/2/1
f 2/4/2 6/20/2 8/5/2
f 6/7/3 7/21/3 4/8/3
f 8/10/4 4/22/4 1/11/4
f 5/13/5 2/23/5 3/14/5
f 7/16/6 5/24/6 1/17/6
